<?xml version="1.0" encoding="utf-8"?>
<!-- Generator: Adobe Illustrator 26.1.0, SVG Export Plug-In . SVG Version: 6.00 Build 0)  -->
<svg version="1.1" id="Layer_1" xmlns="http://www.w3.org/2000/svg" xmlns:xlink="http://www.w3.org/1999/xlink" x="0px" y="0px"
	 viewBox="0 0 414 896" style="enable-background:new 0 0 414 896;" xml:space="preserve">
<style type="text/css">
	.st0{clip-path:url(#SVGID_00000134216331041660778120000001610868061596376488_);}
	.st1{clip-path:url(#SVGID_00000159442672545405608480000004970408212977931424_);}
	.st2{fill:#663399;}
	.st3{clip-path:url(#SVGID_00000047025218159557220110000013282261598552049038_);}
	.st4{clip-path:url(#SVGID_00000098205639103892050450000013754289920908986251_);}
	.st5{fill:#5693C3;}
	.st6{clip-path:url(#SVGID_00000176749754939806241940000008071148409425764236_);}
	.st7{clip-path:url(#SVGID_00000183211632510907518660000000124797757823096242_);}
	.st8{fill:#FAB77F;}
	.st9{clip-path:url(#SVGID_00000013873807892384599610000009859873148915242687_);}
	.st10{clip-path:url(#SVGID_00000125579447639833205680000010718097921718524602_);}
	.st11{fill:#C5786A;}
	.st12{clip-path:url(#SVGID_00000039096274614744265330000015554175698551579033_);}
	.st13{clip-path:url(#SVGID_00000048459962229194705540000003348706623330453152_);}
	.st14{clip-path:url(#SVGID_00000035516915636676287540000001786818547529044895_);}
	.st15{clip-path:url(#SVGID_00000115488662666080082110000008682369096553308564_);}
	.st16{fill:#FDF3C9;}
	.st17{clip-path:url(#SVGID_00000057852058048318669780000016694832321980572079_);}
	.st18{clip-path:url(#SVGID_00000032648586467866349370000009973017220002054560_);}
	.st19{fill:#3F4143;}
	.st20{clip-path:url(#SVGID_00000128484661263322072460000013396020452750121638_);}
	.st21{clip-path:url(#SVGID_00000150089947901379672700000011587318829794420653_);}
	.st22{clip-path:url(#SVGID_00000112602017610900784010000015424830624936991932_);}
	.st23{clip-path:url(#SVGID_00000129190497141996953770000010816692584881129872_);}
	.st24{clip-path:url(#SVGID_00000039126850824709322590000016043002623217695649_);}
	.st25{clip-path:url(#SVGID_00000042716669944081582560000002869255511969359014_);}
	.st26{clip-path:url(#SVGID_00000098923906996653002750000001310239960041305246_);}
	.st27{clip-path:url(#SVGID_00000113337964436108192840000013392485995848539009_);}
	.st28{clip-path:url(#SVGID_00000054978759414947555110000011473441218573133713_);}
	.st29{clip-path:url(#SVGID_00000160174587505703406520000016662461738790630539_);}
	.st30{clip-path:url(#SVGID_00000096739113657415201830000012585232410326587052_);}
	.st31{clip-path:url(#SVGID_00000004547245961375027270000007240841037136962447_);}
	.st32{clip-path:url(#SVGID_00000072971056614595388710000014439680978232621716_);}
	.st33{clip-path:url(#SVGID_00000132062179273110651040000012313919967019205538_);}
	.st34{fill:#38393B;}
	.st35{clip-path:url(#SVGID_00000115490914376495396920000003535521002020867718_);}
	.st36{clip-path:url(#SVGID_00000071542520349032607180000007758773950964358842_);}
	.st37{clip-path:url(#SVGID_00000158016418571148737700000001304300241422829445_);}
	.st38{clip-path:url(#SVGID_00000093891148465721360150000012461795083361808522_);}
	.st39{fill:#FFFFFF;}
	.st40{clip-path:url(#SVGID_00000142891554635107236010000013467405504877357750_);}
	.st41{clip-path:url(#SVGID_00000075164778430746472530000018060116709120136099_);}
	.st42{clip-path:url(#SVGID_00000040542129243135004230000007321306128439543197_);}
	.st43{clip-path:url(#SVGID_00000057113998395769114310000014710952844479919755_);}
	.st44{clip-path:url(#SVGID_00000070080345679446408610000004754997213825528232_);}
	.st45{clip-path:url(#SVGID_00000135657728766318544550000012457565861144388502_);}
	.st46{clip-path:url(#SVGID_00000029043245700545591030000010732154724354109338_);}
	.st47{clip-path:url(#SVGID_00000173865760323488918680000006830541771661381306_);}
	.st48{clip-path:url(#SVGID_00000109012774751473119340000000623600325130852009_);}
	.st49{clip-path:url(#SVGID_00000106828226379949506270000014660914379010448056_);}
	.st50{clip-path:url(#SVGID_00000119088123447110479400000005192971697533971873_);}
	.st51{clip-path:url(#SVGID_00000137097585279684059360000005653972170594689706_);}
	.st52{fill:#CDB6A7;}
	.st53{clip-path:url(#SVGID_00000000184786996972375080000018269140450249264060_);}
	.st54{clip-path:url(#SVGID_00000070100307682404034260000017636625252320104864_);}
</style>
<g>
	<defs>
		<rect id="SVGID_1_" y="0.7" width="413.3" height="894.6"/>
	</defs>
	<clipPath id="SVGID_00000180336942843283766360000001352694688325791110_">
		<use xlink:href="#SVGID_1_"  style="overflow:visible;"/>
	</clipPath>
</g>
<g>
	<defs>
		<rect id="SVGID_00000103249990881573519630000003191568673371098509_" x="25.4" y="302.9" width="334.8" height="335.2"/>
	</defs>
	<clipPath id="SVGID_00000096061766193280390240000003958189472518298762_">
		<use xlink:href="#SVGID_00000103249990881573519630000003191568673371098509_"  style="overflow:visible;"/>
	</clipPath>
	<g style="clip-path:url(#SVGID_00000096061766193280390240000003958189472518298762_);">
		<g>
			<defs>
				<path id="SVGID_00000171718851028111181420000015885412409225880966_" d="M286.7,332c4.2-18.6,6.9-56.6-23.8-96.6
					c-43.2-56.1-195.8,35.8-200.6,44c-3.6,6.2,2.5,55.1,5.8,79.3c-26.6,29.7-42.8,68.9-42.8,111.9c0,92.5,74.9,167.5,167.3,167.5
					s167.3-75,167.3-167.5C360.1,412.9,331,362.1,286.7,332z"/>
			</defs>
			<clipPath id="SVGID_00000176027410515997364140000004596648240980497301_">
				<use xlink:href="#SVGID_00000171718851028111181420000015885412409225880966_"  style="overflow:visible;"/>
			</clipPath>
			<g style="clip-path:url(#SVGID_00000176027410515997364140000004596648240980497301_);">
				<path class="st2" d="M360.1,470.6c0,92.5-74.9,167.5-167.3,167.5s-167.3-75-167.3-167.5S100.3,303,192.7,303
					S360.1,378,360.1,470.6"/>
			</g>
		</g>
	</g>
</g>
<g>
	<defs>
		<rect id="SVGID_00000014633999120110446800000005957037934671912579_" x="116.2" y="540.3" width="157.9" height="97.8"/>
	</defs>
	<clipPath id="SVGID_00000124875546525153684120000008395667958713757085_">
		<use xlink:href="#SVGID_00000014633999120110446800000005957037934671912579_"  style="overflow:visible;"/>
	</clipPath>
	<g style="clip-path:url(#SVGID_00000124875546525153684120000008395667958713757085_);">
		<g>
			<defs>
				<path id="SVGID_00000072983762119183703080000007667251480292602526_" d="M286.7,332c4.2-18.6,6.9-56.6-23.8-96.6
					c-43.2-56.1-195.8,35.8-200.6,44c-3.6,6.2,2.5,55.1,5.8,79.3c-26.6,29.7-42.8,68.9-42.8,111.9c0,92.5,74.9,167.5,167.3,167.5
					s167.3-75,167.3-167.5C360.1,412.9,331,362.1,286.7,332z"/>
			</defs>
			<clipPath id="SVGID_00000165927165402818841990000005102299463228098720_">
				<use xlink:href="#SVGID_00000072983762119183703080000007667251480292602526_"  style="overflow:visible;"/>
			</clipPath>
			<g style="clip-path:url(#SVGID_00000165927165402818841990000005102299463228098720_);">
				<path class="st5" d="M146.7,546.8c0,0-27.5,60.6-30.4,90.5c14.9,10.7,156,9.1,157.6,5.6c1.6-3.5-10.4-87.4-14.7-98.2
					C255,534,146.7,546.8,146.7,546.8"/>
			</g>
		</g>
	</g>
</g>
<g>
	<defs>
		<rect id="SVGID_00000159438425468003639430000003955866565959330739_" x="136.4" y="393.2" width="32.9" height="51.5"/>
	</defs>
	<clipPath id="SVGID_00000175306209687397561600000004094934374011538584_">
		<use xlink:href="#SVGID_00000159438425468003639430000003955866565959330739_"  style="overflow:visible;"/>
	</clipPath>
	<g style="clip-path:url(#SVGID_00000175306209687397561600000004094934374011538584_);">
		<g>
			<defs>
				<path id="SVGID_00000025444368360703078840000005456518936597743500_" d="M286.7,332c4.2-18.6,6.9-56.6-23.8-96.6
					c-43.2-56.1-195.8,35.8-200.6,44c-3.6,6.2,2.5,55.1,5.8,79.3c-26.6,29.7-42.8,68.9-42.8,111.9c0,92.5,74.9,167.5,167.3,167.5
					s167.3-75,167.3-167.5C360.1,412.9,331,362.1,286.7,332z"/>
			</defs>
			<clipPath id="SVGID_00000141416511573929428620000005626974587322158977_">
				<use xlink:href="#SVGID_00000025444368360703078840000005456518936597743500_"  style="overflow:visible;"/>
			</clipPath>
			<g style="clip-path:url(#SVGID_00000141416511573929428620000005626974587322158977_);">
				<path class="st8" d="M144.2,393.2c0,0-6.3,21.9-7.7,25.2c-1.4,3.3,20,38.1,28.3,21.8C173.1,423.9,171.4,398.2,144.2,393.2"/>
			</g>
		</g>
	</g>
</g>
<g>
	<defs>
		<rect id="SVGID_00000166656328985737125230000003211994927136935870_" x="128.1" y="418.4" width="28.5" height="94.3"/>
	</defs>
	<clipPath id="SVGID_00000049217203668569696770000006116618626562046616_">
		<use xlink:href="#SVGID_00000166656328985737125230000003211994927136935870_"  style="overflow:visible;"/>
	</clipPath>
	<g style="clip-path:url(#SVGID_00000049217203668569696770000006116618626562046616_);">
		<g>
			<defs>
				<path id="SVGID_00000156589558473041820320000017140284539501193868_" d="M286.7,332c4.2-18.6,6.9-56.6-23.8-96.6
					c-43.2-56.1-195.8,35.8-200.6,44c-3.6,6.2,2.5,55.1,5.8,79.3c-26.6,29.7-42.8,68.9-42.8,111.9c0,92.5,74.9,167.5,167.3,167.5
					s167.3-75,167.3-167.5C360.1,412.9,331,362.1,286.7,332z"/>
			</defs>
			<clipPath id="SVGID_00000003066728757710876120000006908056134939610299_">
				<use xlink:href="#SVGID_00000156589558473041820320000017140284539501193868_"  style="overflow:visible;"/>
			</clipPath>
			<g style="clip-path:url(#SVGID_00000003066728757710876120000006908056134939610299_);">
				<path class="st11" d="M132.6,427.7l3.9-9.2c0,0,16.4,15.4,18,29.8c1.6,14.4,2.8,24,1.9,27.1c-0.9,3.1-8.2,22.9-21.5,36
					C121.5,524.5,132.6,427.7,132.6,427.7"/>
			</g>
		</g>
	</g>
</g>
<g>
	<defs>
		<rect id="SVGID_00000070112160339330344190000008411129293001010568_" x="70" y="286.8" width="74.2" height="233.7"/>
	</defs>
	<clipPath id="SVGID_00000034060672900272436580000017299006997679310004_">
		<use xlink:href="#SVGID_00000070112160339330344190000008411129293001010568_"  style="overflow:visible;"/>
	</clipPath>
	<g style="clip-path:url(#SVGID_00000034060672900272436580000017299006997679310004_);">
		<g>
			<defs>
				<path id="SVGID_00000024722286939128835320000000380698961809694627_" d="M286.7,332c4.2-18.6,6.9-56.6-23.8-96.6
					c-43.2-56.1-195.8,35.8-200.6,44c-3.6,6.2,2.5,55.1,5.8,79.3c-26.6,29.7-42.8,68.9-42.8,111.9c0,92.5,74.9,167.5,167.3,167.5
					s167.3-75,167.3-167.5C360.1,412.9,331,362.1,286.7,332z"/>
			</defs>
			<clipPath id="SVGID_00000016052899320180034720000002187992972239922865_">
				<use xlink:href="#SVGID_00000024722286939128835320000000380698961809694627_"  style="overflow:visible;"/>
			</clipPath>
			<g style="clip-path:url(#SVGID_00000016052899320180034720000002187992972239922865_);">
				<path class="st8" d="M124.3,361.5c0,0,4.5-1.9,5-11.1c0.4-9.3-6.5-35.2-11.5-41.1c-2.4,0.5-0.8,15.5-0.8,15.5
					s-17.2-35.4-23.8-37.9c-1.6-0.4,10,31.4,10,31.4S83.7,290.1,80,290c-3.7-0.1,16,37.4,16,37.4s-19.2-23.8-22.2-23.7
					c-3,0.1,15.1,29.5,15.1,29.5s-17.5-18.6-18.8-16.7c-1.2,1.9,25,52.8,30.7,54c0.4,37,0.9,107.4,3.3,117.3
					c2.4,9.9,12.8,31.8,18.9,32.6c6.1,0.8,19.2-15.7,21.1-29.9C145.9,476.3,124.3,361.5,124.3,361.5"/>
			</g>
		</g>
	</g>
</g>
<g>
	<defs>
		<rect id="SVGID_00000173858781850430529720000014491741107714864539_" x="140.2" y="375.7" width="156.7" height="177"/>
	</defs>
	<clipPath id="SVGID_00000026164476947453779640000002170195189762301844_">
		<use xlink:href="#SVGID_00000173858781850430529720000014491741107714864539_"  style="overflow:visible;"/>
	</clipPath>
	<g style="clip-path:url(#SVGID_00000026164476947453779640000002170195189762301844_);">
		<g>
			<defs>
				<path id="SVGID_00000126306008644964287140000005166298997912870800_" d="M286.7,332c4.2-18.6,6.9-56.6-23.8-96.6
					c-43.2-56.1-195.8,35.8-200.6,44c-3.6,6.2,2.5,55.1,5.8,79.3c-26.6,29.7-42.8,68.9-42.8,111.9c0,92.5,74.9,167.5,167.3,167.5
					s167.3-75,167.3-167.5C360.1,412.9,331,362.1,286.7,332z"/>
			</defs>
			<clipPath id="SVGID_00000061473774639610830690000007809414936812930176_">
				<use xlink:href="#SVGID_00000126306008644964287140000005166298997912870800_"  style="overflow:visible;"/>
			</clipPath>
			<g style="clip-path:url(#SVGID_00000061473774639610830690000007809414936812930176_);">
				<path class="st16" d="M156.1,375.8c0,0-6.5,1.4-9.3,5.6c-2.9,4.2-4.3,11.6-4.4,12.5c-0.1,0.9-1.9,1.7-1.9,1.9
					c0,0.3,18.3,14.8,18.3,15c0,0.3-17.5,40.7-18.3,47.5c-0.9,6.8,10,26,12.6,35.2c2.7,9.3-2.3,27.4-6.8,36
					c-4.4,8.5-8.4,14.6-1.2,18.9c7.1,4.3,83,6.6,90.9,0c7.8-6.6,57.8-122.1,57.8-122.1s3.1-0.3,3.1-1c0.1-0.7-2.2-2.9-2.2-2.9
					s-0.1-13.8-2.9-21.8C289,392.8,156.1,375.8,156.1,375.8"/>
			</g>
		</g>
	</g>
</g>
<g>
	<defs>
		<rect id="SVGID_00000031897891571913178110000012273448536735419050_" x="151.1" y="228.1" width="128.9" height="138.6"/>
	</defs>
	<clipPath id="SVGID_00000047770250669740781720000001593478784360255380_">
		<use xlink:href="#SVGID_00000031897891571913178110000012273448536735419050_"  style="overflow:visible;"/>
	</clipPath>
	<g style="clip-path:url(#SVGID_00000047770250669740781720000001593478784360255380_);">
		<g>
			<defs>
				<path id="SVGID_00000156569622230997156060000005505697600209135016_" d="M286.7,332c4.2-18.6,6.9-56.6-23.8-96.6
					c-43.2-56.1-195.8,35.8-200.6,44c-3.6,6.2,2.5,55.1,5.8,79.3c-26.6,29.7-42.8,68.9-42.8,111.9c0,92.5,74.9,167.5,167.3,167.5
					s167.3-75,167.3-167.5C360.1,412.9,331,362.1,286.7,332z"/>
			</defs>
			<clipPath id="SVGID_00000107576392001989785880000008112991133742342317_">
				<use xlink:href="#SVGID_00000156569622230997156060000005505697600209135016_"  style="overflow:visible;"/>
			</clipPath>
			<g style="clip-path:url(#SVGID_00000107576392001989785880000008112991133742342317_);">
				<path class="st19" d="M202.5,234.2c-0.5,0.1-13.2-10.8-35.1-3.6c-21.9,7.2-16.4,38.9-13.2,47.3c-5.2,24.4,7.5,71.7,16.9,81.2
					c2.5,1.3,4.8-5.1,4.8-5.1s6.4,8.9,7.7,8.8c1.3-0.1,4.3-7.5,4.3-7.5s8.7,6.7,12.3,8.4c3.6,1.7,26.1,3.2,29.3,2.8
					c3.2-0.4,9.3-10.9,9.3-10.9s4.5,7.7,7.3,6.9c2.8-0.8,7.7-10.1,8.1-10.1c0.4,0,4.8,9.6,6.5,7.9c1.7-1.7,25.7-59,17.2-76.4
					C276.6,253.9,252.8,225.3,202.5,234.2"/>
			</g>
		</g>
	</g>
</g>
<g>
	<defs>
		<rect id="SVGID_00000176729369149685417030000001398621508397292928_" x="156" y="312.9" width="135.9" height="93.4"/>
	</defs>
	<clipPath id="SVGID_00000101094101650987083670000002690440049100275847_">
		<use xlink:href="#SVGID_00000176729369149685417030000001398621508397292928_"  style="overflow:visible;"/>
	</clipPath>
	<g style="clip-path:url(#SVGID_00000101094101650987083670000002690440049100275847_);">
		<g>
			<defs>
				<path id="SVGID_00000023239006504361851490000008211436187025564288_" d="M286.7,332c4.2-18.6,6.9-56.6-23.8-96.6
					c-43.2-56.1-195.8,35.8-200.6,44c-3.6,6.2,2.5,55.1,5.8,79.3c-26.6,29.7-42.8,68.9-42.8,111.9c0,92.5,74.9,167.5,167.3,167.5
					s167.3-75,167.3-167.5C360.1,412.9,331,362.1,286.7,332z"/>
			</defs>
			<clipPath id="SVGID_00000103257947703192070410000014997601251380737723_">
				<use xlink:href="#SVGID_00000023239006504361851490000008211436187025564288_"  style="overflow:visible;"/>
			</clipPath>
			<g style="clip-path:url(#SVGID_00000103257947703192070410000014997601251380737723_);">
				<path class="st8" d="M192.9,343.4c0,0,1.2,19.7-4.1,23.2c-5.3,3.5-28.5,7.8-32.7,9.2c58,41.3,123.1,30.3,135.7,24.9
					c-2.3-10.9-9.6-17.8-13.3-19.9s-40.5-5.7-46.9-17.8c-5.2-15.1,1.1-50,1.1-50L192.9,343.4"/>
			</g>
		</g>
	</g>
</g>
<g>
	<defs>
		<rect id="SVGID_00000150067064189319728640000001243139235408779155_" x="192.6" y="311.9" width="40.3" height="40.1"/>
	</defs>
	<clipPath id="SVGID_00000017490842607462470730000003760662431180926095_">
		<use xlink:href="#SVGID_00000150067064189319728640000001243139235408779155_"  style="overflow:visible;"/>
	</clipPath>
	<g style="clip-path:url(#SVGID_00000017490842607462470730000003760662431180926095_);">
		<g>
			<defs>
				<path id="SVGID_00000095309590704957526630000002195816323354542721_" d="M286.7,332c4.2-18.6,6.9-56.6-23.8-96.6
					c-43.2-56.1-195.8,35.8-200.6,44c-3.6,6.2,2.5,55.1,5.8,79.3c-26.6,29.7-42.8,68.9-42.8,111.9c0,92.5,74.9,167.5,167.3,167.5
					s167.3-75,167.3-167.5C360.1,412.9,331,362.1,286.7,332z"/>
			</defs>
			<clipPath id="SVGID_00000018218368106154295870000015797955848717820835_">
				<use xlink:href="#SVGID_00000095309590704957526630000002195816323354542721_"  style="overflow:visible;"/>
			</clipPath>
			<g style="clip-path:url(#SVGID_00000018218368106154295870000015797955848717820835_);">
				<path class="st11" d="M192.7,343l0.2,8.7c17,2.1,30.9-7.4,38.1-28.2c1.5-9.9,1.7-11.5,1.7-11.5L192.7,343"/>
			</g>
		</g>
	</g>
</g>
<g>
	<defs>
		<rect id="SVGID_00000150814690920560722680000018397860532307375275_" x="161.4" y="249.6" width="93" height="98.2"/>
	</defs>
	<clipPath id="SVGID_00000098178634852703585380000007717698076208946057_">
		<use xlink:href="#SVGID_00000150814690920560722680000018397860532307375275_"  style="overflow:visible;"/>
	</clipPath>
	<g style="clip-path:url(#SVGID_00000098178634852703585380000007717698076208946057_);">
		<g>
			<defs>
				<path id="SVGID_00000037655103598667629390000005471258003662822584_" d="M286.7,332c4.2-18.6,6.9-56.6-23.8-96.6
					c-43.2-56.1-195.8,35.8-200.6,44c-3.6,6.2,2.5,55.1,5.8,79.3c-26.6,29.7-42.8,68.9-42.8,111.9c0,92.5,74.9,167.5,167.3,167.5
					s167.3-75,167.3-167.5C360.1,412.9,331,362.1,286.7,332z"/>
			</defs>
			<clipPath id="SVGID_00000119103307220401577040000001073174303377354138_">
				<use xlink:href="#SVGID_00000037655103598667629390000005471258003662822584_"  style="overflow:visible;"/>
			</clipPath>
			<g style="clip-path:url(#SVGID_00000119103307220401577040000001073174303377354138_);">
				<path class="st8" d="M186.5,249.8c0,0,10,31.9,36.3,33.5c1.6-2-1.2-8-1.2-8s6.8,7.5,8.6,8c1.7,0.5-0.5-6.1-0.5-6.1
					s5.9,14.8,9.5,15.9c7.7-6.9,20.8,4.7,12.9,15.7c-7.8,11-20.1,10.1-20.1,10.1s-22.9,33.9-46.7,28.3
					c-23.7-5.6-25.5-58.5-22.5-72.2C178,267.6,186.5,249.8,186.5,249.8"/>
			</g>
		</g>
	</g>
</g>
<g>
	<defs>
		<rect id="SVGID_00000163753945049791935060000003882039044180353205_" x="160" y="279.4" width="18.7" height="5.8"/>
	</defs>
	<clipPath id="SVGID_00000183227210532142054320000002887532016967478673_">
		<use xlink:href="#SVGID_00000163753945049791935060000003882039044180353205_"  style="overflow:visible;"/>
	</clipPath>
	<g style="clip-path:url(#SVGID_00000183227210532142054320000002887532016967478673_);">
		<g>
			<defs>
				<path id="SVGID_00000003100427310669382830000012592828041927290559_" d="M286.7,332c4.2-18.6,6.9-56.6-23.8-96.6
					c-43.2-56.1-195.8,35.8-200.6,44c-3.6,6.2,2.5,55.1,5.8,79.3c-26.6,29.7-42.8,68.9-42.8,111.9c0,92.5,74.9,167.5,167.3,167.5
					s167.3-75,167.3-167.5C360.1,412.9,331,362.1,286.7,332z"/>
			</defs>
			<clipPath id="SVGID_00000036253814478502113950000006422497817736350397_">
				<use xlink:href="#SVGID_00000003100427310669382830000012592828041927290559_"  style="overflow:visible;"/>
			</clipPath>
			<g style="clip-path:url(#SVGID_00000036253814478502113950000006422497817736350397_);">
				<path class="st19" d="M177.7,281.5c-4.8-2.5-11-2.3-16.1-1.3c-2.6,0.5-1.5,4.5,1.1,4c4.8-0.8,8.8,0.2,13.5,0.9
					C178.2,285.3,179.8,282.6,177.7,281.5"/>
			</g>
		</g>
	</g>
</g>
<g>
	<defs>
		<rect id="SVGID_00000028316362535109907310000010010390922995103147_" x="201.3" y="282.1" width="21.3" height="7.7"/>
	</defs>
	<clipPath id="SVGID_00000124866269045807732280000007929949565254270084_">
		<use xlink:href="#SVGID_00000028316362535109907310000010010390922995103147_"  style="overflow:visible;"/>
	</clipPath>
	<g style="clip-path:url(#SVGID_00000124866269045807732280000007929949565254270084_);">
		<g>
			<defs>
				<path id="SVGID_00000168077776013209886390000014056285701719746456_" d="M286.7,332c4.2-18.6,6.9-56.6-23.8-96.6
					c-43.2-56.1-195.8,35.8-200.6,44c-3.6,6.2,2.5,55.1,5.8,79.3c-26.6,29.7-42.8,68.9-42.8,111.9c0,92.5,74.9,167.5,167.3,167.5
					s167.3-75,167.3-167.5C360.1,412.9,331,362.1,286.7,332z"/>
			</defs>
			<clipPath id="SVGID_00000043418466218565637270000010564010396343416992_">
				<use xlink:href="#SVGID_00000168077776013209886390000014056285701719746456_"  style="overflow:visible;"/>
			</clipPath>
			<g style="clip-path:url(#SVGID_00000043418466218565637270000010564010396343416992_);">
				<path class="st19" d="M222.6,287.2c-0.8-2.7-5.5-4-7.9-4.5c-3.7-0.8-8.3-0.7-11.9,0.6c-1.9,0.7-1.6,3.5,0.5,3.6
					c2.8,0.1,5.5-0.4,8.3-0.2c3,0.2,5.2,1.3,7.7,2.6c0.5,0.5,1.2,0.6,1.9,0.5c0.1,0,0.1,0,0.2,0
					C222.3,289.5,222.9,288.2,222.6,287.2"/>
			</g>
		</g>
	</g>
</g>
<g>
	<defs>
		<rect id="SVGID_00000176045514388571380350000002919752807898195351_" x="183.5" y="287.5" width="6.8" height="31.2"/>
	</defs>
	<clipPath id="SVGID_00000042011854565703228200000015498166064360203921_">
		<use xlink:href="#SVGID_00000176045514388571380350000002919752807898195351_"  style="overflow:visible;"/>
	</clipPath>
	<g style="clip-path:url(#SVGID_00000042011854565703228200000015498166064360203921_);">
		<g>
			<defs>
				<path id="SVGID_00000078034235099896926840000008590522958663077549_" d="M286.7,332c4.2-18.6,6.9-56.6-23.8-96.6
					c-43.2-56.1-195.8,35.8-200.6,44c-3.6,6.2,2.5,55.1,5.8,79.3c-26.6,29.7-42.8,68.9-42.8,111.9c0,92.5,74.9,167.5,167.3,167.5
					s167.3-75,167.3-167.5C360.1,412.9,331,362.1,286.7,332z"/>
			</defs>
			<clipPath id="SVGID_00000163056698731182647040000002647934179136755588_">
				<use xlink:href="#SVGID_00000078034235099896926840000008590522958663077549_"  style="overflow:visible;"/>
			</clipPath>
			<g style="clip-path:url(#SVGID_00000163056698731182647040000002647934179136755588_);">
				<path class="st11" d="M190.2,303.5c-0.1-5.4-2.5-10.8-5-15.5c-0.5-0.8-1.9-0.3-1.6,0.7c2.8,7.1,6,14,1.8,21.3
					c-2,3.4-2.8,5.4,0.9,8.3c0.9,0.7,2.2,0.1,2-1.2c-0.1-0.4-1-4.1-1-4c0.1-0.6,1.5-2.3,1.7-2.9
					C189.9,308.1,190.3,305.7,190.2,303.5"/>
			</g>
		</g>
	</g>
</g>
<g>
	<defs>
		<rect id="SVGID_00000118368405183862837600000012041189253549771700_" x="172.1" y="293.5" width="4.6" height="8.6"/>
	</defs>
	<clipPath id="SVGID_00000077290832066902888000000013727538576898262658_">
		<use xlink:href="#SVGID_00000118368405183862837600000012041189253549771700_"  style="overflow:visible;"/>
	</clipPath>
	<g style="clip-path:url(#SVGID_00000077290832066902888000000013727538576898262658_);">
		<g>
			<defs>
				<path id="SVGID_00000044883302302605127490000009603692891496710844_" d="M286.7,332c4.2-18.6,6.9-56.6-23.8-96.6
					c-43.2-56.1-195.8,35.8-200.6,44c-3.6,6.2,2.5,55.1,5.8,79.3c-26.6,29.7-42.8,68.9-42.8,111.9c0,92.5,74.9,167.5,167.3,167.5
					s167.3-75,167.3-167.5C360.1,412.9,331,362.1,286.7,332z"/>
			</defs>
			<clipPath id="SVGID_00000082339622282478694820000016649105797249551263_">
				<use xlink:href="#SVGID_00000044883302302605127490000009603692891496710844_"  style="overflow:visible;"/>
			</clipPath>
			<g style="clip-path:url(#SVGID_00000082339622282478694820000016649105797249551263_);">
				<path class="st34" d="M176.4,297.5c-0.1-0.9-0.1-1.8-0.4-2.6c-0.5-1.7-3.3-1.9-3.6,0c-0.3,1.8-0.3,3.9,0.1,5.7
					c0.2,1,1.3,1.6,2.3,1.5c1.1-0.2,1.7-1,1.8-2C176.6,299.2,176.5,298.3,176.4,297.5"/>
			</g>
		</g>
	</g>
</g>
<g>
	<defs>
		<rect id="SVGID_00000060016505993822016670000005979442126702092685_" x="212.9" y="295.2" width="4.6" height="8.8"/>
	</defs>
	<clipPath id="SVGID_00000042701256977067926740000017431712848993656714_">
		<use xlink:href="#SVGID_00000060016505993822016670000005979442126702092685_"  style="overflow:visible;"/>
	</clipPath>
	<g style="clip-path:url(#SVGID_00000042701256977067926740000017431712848993656714_);">
		<g>
			<defs>
				<path id="SVGID_00000147928186428529937700000015766376338517695882_" d="M286.7,332c4.2-18.6,6.9-56.6-23.8-96.6
					c-43.2-56.1-195.8,35.8-200.6,44c-3.6,6.2,2.5,55.1,5.8,79.3c-26.6,29.7-42.8,68.9-42.8,111.9c0,92.5,74.9,167.5,167.3,167.5
					s167.3-75,167.3-167.5C360.1,412.9,331,362.1,286.7,332z"/>
			</defs>
			<clipPath id="SVGID_00000021815339444386659390000015641624690500052903_">
				<use xlink:href="#SVGID_00000147928186428529937700000015766376338517695882_"  style="overflow:visible;"/>
			</clipPath>
			<g style="clip-path:url(#SVGID_00000021815339444386659390000015641624690500052903_);">
				<path class="st34" d="M217.2,299.3c-0.1-0.9-0.1-1.8-0.4-2.6c-0.5-1.7-3.3-1.9-3.6,0c-0.3,1.8-0.3,3.9,0.1,5.7
					c0.2,1,1.3,1.6,2.3,1.5c1.1-0.2,1.7-1,1.8-2C217.4,301,217.3,300.2,217.2,299.3"/>
			</g>
		</g>
	</g>
</g>
<g>
	<defs>
		<rect id="SVGID_00000174590831862424724700000001718155026124626059_" x="181.9" y="322.7" width="27.1" height="12.6"/>
	</defs>
	<clipPath id="SVGID_00000110456568134183834260000002631635023808838784_">
		<use xlink:href="#SVGID_00000174590831862424724700000001718155026124626059_"  style="overflow:visible;"/>
	</clipPath>
	<g style="clip-path:url(#SVGID_00000110456568134183834260000002631635023808838784_);">
		<g>
			<defs>
				<path id="SVGID_00000106132663886535305580000016978193187531791548_" d="M286.7,332c4.2-18.6,6.9-56.6-23.8-96.6
					c-43.2-56.1-195.8,35.8-200.6,44c-3.6,6.2,2.5,55.1,5.8,79.3c-26.6,29.7-42.8,68.9-42.8,111.9c0,92.5,74.9,167.5,167.3,167.5
					s167.3-75,167.3-167.5C360.1,412.9,331,362.1,286.7,332z"/>
			</defs>
			<clipPath id="SVGID_00000085231966688528099020000004528158353648967614_">
				<use xlink:href="#SVGID_00000106132663886535305580000016978193187531791548_"  style="overflow:visible;"/>
			</clipPath>
			<g style="clip-path:url(#SVGID_00000085231966688528099020000004528158353648967614_);">
				<path class="st39" d="M182,325.4c-0.1-0.3,21.2-3.6,26.9-2.4C204.8,336.5,186.1,340.9,182,325.4"/>
			</g>
		</g>
	</g>
</g>
<g>
	<defs>
		<rect id="SVGID_00000134972000104326325940000014518016841417247395_" x="236.2" y="297.1" width="13" height="15.9"/>
	</defs>
	<clipPath id="SVGID_00000126299010412065354340000007013391650846842244_">
		<use xlink:href="#SVGID_00000134972000104326325940000014518016841417247395_"  style="overflow:visible;"/>
	</clipPath>
	<g style="clip-path:url(#SVGID_00000126299010412065354340000007013391650846842244_);">
		<g>
			<defs>
				<path id="SVGID_00000089568571197458429650000006237418695219761280_" d="M286.7,332c4.2-18.6,6.9-56.6-23.8-96.6
					c-43.2-56.1-195.8,35.8-200.6,44c-3.6,6.2,2.5,55.1,5.8,79.3c-26.6,29.7-42.8,68.9-42.8,111.9c0,92.5,74.9,167.5,167.3,167.5
					s167.3-75,167.3-167.5C360.1,412.9,331,362.1,286.7,332z"/>
			</defs>
			<clipPath id="SVGID_00000137821407821279927090000003620271788906151086_">
				<use xlink:href="#SVGID_00000089568571197458429650000006237418695219761280_"  style="overflow:visible;"/>
			</clipPath>
			<g style="clip-path:url(#SVGID_00000137821407821279927090000003620271788906151086_);">
				<path class="st11" d="M247.5,297.2c-3.5-0.1-7.9,3.1-9.7,6c-0.7,1.1-1,2.8,0.2,3.8c0.9,0.8,1.3-0.1,0.6,1.6
					c-0.6,1.2-1.1,2.3-2,3.3c-0.4,0.5,0.1,1.3,0.7,0.9c2.1-1.4,4.2-2.1,4.8-4.8c0.2-0.8,0.2-1.7-0.1-2.5c-0.1-0.2-0.5-0.6-0.8-0.9
					c1.3-2.4,5.3-3.3,7.2-4.6C249.5,299.2,249.1,297.2,247.5,297.2"/>
			</g>
		</g>
	</g>
</g>
<g>
	<defs>
		<rect id="SVGID_00000053534819110557036460000007608659305134019775_" x="196.6" y="426.3" width="97.2" height="211.8"/>
	</defs>
	<clipPath id="SVGID_00000080912832883247304160000014619789270059399859_">
		<use xlink:href="#SVGID_00000053534819110557036460000007608659305134019775_"  style="overflow:visible;"/>
	</clipPath>
	<g style="clip-path:url(#SVGID_00000080912832883247304160000014619789270059399859_);">
		<g>
			<defs>
				<path id="SVGID_00000088118335982183198750000007456596057123094672_" d="M286.7,332c4.2-18.6,6.9-56.6-23.8-96.6
					c-43.2-56.1-195.8,35.8-200.6,44c-3.6,6.2,2.5,55.1,5.8,79.3c-26.6,29.7-42.8,68.9-42.8,111.9c0,92.5,74.9,167.5,167.3,167.5
					s167.3-75,167.3-167.5C360.1,412.9,331,362.1,286.7,332z"/>
			</defs>
			<clipPath id="SVGID_00000061449385541947807090000008847580372298200723_">
				<use xlink:href="#SVGID_00000088118335982183198750000007456596057123094672_"  style="overflow:visible;"/>
			</clipPath>
			<g style="clip-path:url(#SVGID_00000061449385541947807090000008847580372298200723_);">
				<path class="st8" d="M240.4,431.4c0,0.8-16.4,114.3-16.4,118.8c-13.7,25.4-26.5,78.2-27.3,95.1c0.5,0.8,18.1,4.5,18.1,4.5
					s38.1-80.9,41.1-94.8c22.4-66,37.9-126,37.9-128.7C271.8,426.6,240.4,431.4,240.4,431.4"/>
			</g>
		</g>
	</g>
</g>
<g>
	<defs>
		<rect id="SVGID_00000068640251537165055990000007512333245959448983_" x="96.5" y="325.7" width="21.4" height="28.7"/>
	</defs>
	<clipPath id="SVGID_00000163052734119997510630000008120038440303724714_">
		<use xlink:href="#SVGID_00000068640251537165055990000007512333245959448983_"  style="overflow:visible;"/>
	</clipPath>
	<g style="clip-path:url(#SVGID_00000163052734119997510630000008120038440303724714_);">
		<g>
			<defs>
				<path id="SVGID_00000022526171756506937890000002719201472539650492_" d="M286.7,332c4.2-18.6,6.9-56.6-23.8-96.6
					c-43.2-56.1-195.8,35.8-200.6,44c-3.6,6.2,2.5,55.1,5.8,79.3c-26.6,29.7-42.8,68.9-42.8,111.9c0,92.5,74.9,167.5,167.3,167.5
					s167.3-75,167.3-167.5C360.1,412.9,331,362.1,286.7,332z"/>
			</defs>
			<clipPath id="SVGID_00000016786621663268799680000005119036678786041021_">
				<use xlink:href="#SVGID_00000022526171756506937890000002719201472539650492_"  style="overflow:visible;"/>
			</clipPath>
			<g style="clip-path:url(#SVGID_00000016786621663268799680000005119036678786041021_);">
				<path class="st11" d="M117.8,326.5c0.1-0.6-0.8-0.9-1.2-0.5c-1.6,2-2.2,4.1-2.6,6.7c-0.4,2.7,0.4,8.4-1.8,10.2
					c-0.8,0.6-3.4,0.7-4.5,1c-1.1,0.4-2.3,0.9-3.3,1.5c-1.3,0.7-2.5,1.6-3.6,2.6c1.1-5,8.4-14.3,9.7-16.5c0.8-1.3-0.8-3.1-2.2-2.2
					c-4.8,3.3-16.3,18.7-10.1,24.4c0.8,0.7,2.3,0.9,3,0c2.4-3,5.3-5.2,9-6.3c2-0.6,4.3-0.4,5.6-2.2c1.1-1.6,0.8-6,0.9-7.8
					C116.9,333.7,117.4,330.2,117.8,326.5"/>
			</g>
		</g>
	</g>
</g>
<g>
	<defs>
		<rect id="SVGID_00000085968897444520081890000005270846492370918789_" x="190.3" y="385.8" width="17" height="6.7"/>
	</defs>
	<clipPath id="SVGID_00000054243891885071425980000005278016169407757448_">
		<use xlink:href="#SVGID_00000085968897444520081890000005270846492370918789_"  style="overflow:visible;"/>
	</clipPath>
	<g style="clip-path:url(#SVGID_00000054243891885071425980000005278016169407757448_);">
		<g>
			<defs>
				<path id="SVGID_00000068668249733260322260000010005834946370126997_" d="M286.7,332c4.2-18.6,6.9-56.6-23.8-96.6
					c-43.2-56.1-195.8,35.8-200.6,44c-3.6,6.2,2.5,55.1,5.8,79.3c-26.6,29.7-42.8,68.9-42.8,111.9c0,92.5,74.9,167.5,167.3,167.5
					s167.3-75,167.3-167.5C360.1,412.9,331,362.1,286.7,332z"/>
			</defs>
			<clipPath id="SVGID_00000088850891094180216970000018003234589266790031_">
				<use xlink:href="#SVGID_00000068668249733260322260000010005834946370126997_"  style="overflow:visible;"/>
			</clipPath>
			<g style="clip-path:url(#SVGID_00000088850891094180216970000018003234589266790031_);">
				<path class="st11" d="M206.1,385.9c-2.3-0.4-4.1,0.9-6.1,1.9c-1.2,0.6-2.3,0.9-3.7,0.9c-2.1,0-3.3-0.8-4.7-2.3
					c-0.6-0.6-1.6,0.3-1,1c2,2.1,4.3,5.2,7.4,5c2.7-0.2,6.2-2.2,8.4-3.7C207.4,388,207.5,386.2,206.1,385.9"/>
			</g>
		</g>
	</g>
</g>
<g>
	<defs>
		<rect id="SVGID_00000051343457925852342090000012863276279846527889_" x="228.5" y="548.3" width="10.3" height="12.3"/>
	</defs>
	<clipPath id="SVGID_00000070840362586720365320000011626116882675412626_">
		<use xlink:href="#SVGID_00000051343457925852342090000012863276279846527889_"  style="overflow:visible;"/>
	</clipPath>
	<g style="clip-path:url(#SVGID_00000070840362586720365320000011626116882675412626_);">
		<g>
			<defs>
				<path id="SVGID_00000023987428144054256550000005838278933453473470_" d="M286.7,332c4.2-18.6,6.9-56.6-23.8-96.6
					c-43.2-56.1-195.8,35.8-200.6,44c-3.6,6.2,2.5,55.1,5.8,79.3c-26.6,29.7-42.8,68.9-42.8,111.9c0,92.5,74.9,167.5,167.3,167.5
					s167.3-75,167.3-167.5C360.1,412.9,331,362.1,286.7,332z"/>
			</defs>
			<clipPath id="SVGID_00000001643351244476815630000006551309445015135628_">
				<use xlink:href="#SVGID_00000023987428144054256550000005838278933453473470_"  style="overflow:visible;"/>
			</clipPath>
			<g style="clip-path:url(#SVGID_00000001643351244476815630000006551309445015135628_);">
				<path class="st11" d="M236.7,548.6c-1.6,1-2.8,2.8-3.9,4.3c-1.3,1.7-2.6,3.5-3.9,5.2c-1,1.4,1.3,3.2,2.4,1.9
					c1.4-1.7,2.8-3.4,4.1-5.1c1.2-1.5,2.7-3,3.2-4.9C239,549,237.7,548,236.7,548.6"/>
			</g>
		</g>
	</g>
</g>
<g>
	<defs>
		<rect id="SVGID_00000155837837908799673950000018079880431032293802_" x="154.6" y="468.4" width="55" height="24.2"/>
	</defs>
	<clipPath id="SVGID_00000152231080318777538950000005073042236298701477_">
		<use xlink:href="#SVGID_00000155837837908799673950000018079880431032293802_"  style="overflow:visible;"/>
	</clipPath>
	<g style="clip-path:url(#SVGID_00000152231080318777538950000005073042236298701477_);">
		<g>
			<defs>
				<path id="SVGID_00000183936369484069054430000008180843524088509346_" d="M286.7,332c4.2-18.6,6.9-56.6-23.8-96.6
					c-43.2-56.1-195.8,35.8-200.6,44c-3.6,6.2,2.5,55.1,5.8,79.3c-26.6,29.7-42.8,68.9-42.8,111.9c0,92.5,74.9,167.5,167.3,167.5
					s167.3-75,167.3-167.5C360.1,412.9,331,362.1,286.7,332z"/>
			</defs>
			<clipPath id="SVGID_00000088849695193719006400000016452809117329723540_">
				<use xlink:href="#SVGID_00000183936369484069054430000008180843524088509346_"  style="overflow:visible;"/>
			</clipPath>
			<g style="clip-path:url(#SVGID_00000088849695193719006400000016452809117329723540_);">
				<path class="st52" d="M209.2,490.1c-4.8-7.1-15.6-11.9-23.3-15.2c-9.4-3.9-19.5-6.3-29.7-6.5c-2.3,0-2.2,3.2,0,3.5
					c9.2,1,18.3,2.9,26.9,6.4c4.2,1.7,8.3,3.8,12.1,6.1c4,2.4,7.5,6,11.7,7.9C208.4,493,210.2,491.6,209.2,490.1"/>
			</g>
		</g>
	</g>
</g>
<g>
	<defs>
		<rect id="SVGID_00000022531270981806144320000010610717308869497261_" x="170.9" y="482.4" width="25.4" height="18.2"/>
	</defs>
	<clipPath id="SVGID_00000105421853675435659970000012309786168148203189_">
		<use xlink:href="#SVGID_00000022531270981806144320000010610717308869497261_"  style="overflow:visible;"/>
	</clipPath>
	<g style="clip-path:url(#SVGID_00000105421853675435659970000012309786168148203189_);">
		<g>
			<defs>
				<path id="SVGID_00000049202576636236496780000009422708306402566570_" d="M286.7,332c4.2-18.6,6.9-56.6-23.8-96.6
					c-43.2-56.1-195.8,35.8-200.6,44c-3.6,6.2,2.5,55.1,5.8,79.3c-26.6,29.7-42.8,68.9-42.8,111.9c0,92.5,74.9,167.5,167.3,167.5
					s167.3-75,167.3-167.5C360.1,412.9,331,362.1,286.7,332z"/>
			</defs>
			<clipPath id="SVGID_00000040576306653778468270000004637059897119216552_">
				<use xlink:href="#SVGID_00000049202576636236496780000009422708306402566570_"  style="overflow:visible;"/>
			</clipPath>
			<g style="clip-path:url(#SVGID_00000040576306653778468270000004637059897119216552_);">
				<path class="st52" d="M196.1,498.5c-1.9-4-6.6-6.8-10.2-9.2c-4.2-2.8-8.6-4.9-13.2-6.7c-1.5-0.6-2.5,1.9-1.1,2.6
					c4.3,2.2,8.4,4.7,12.3,7.5c3.5,2.5,6.7,6.1,10.7,7.7C195.8,500.9,196.5,499.4,196.1,498.5"/>
			</g>
		</g>
	</g>
</g>
<path class="st2" d="M384.1,294.4c4.1,17.2-13,36.1-38.2,42.1c-25.2,6-49-3-53.1-20.2c-4.1-17.2,13-36.1,38.2-42.1
	C356.2,268.2,380,277.2,384.1,294.4"/>
<path class="st39" d="M332.7,304.2c-0.6-4.4-1.3-8.8-3.2-12.9c-0.8-1.7-3.6-0.9-3.5,1c0.3,4.4,0.6,8.7,1,13.1
	c-1.4-0.3-2.9-0.1-4.3,0c-1.2,0.1-2.5,0.2-3.6,0.4c-0.5-4.5-1.5-8.9-2.9-12.5c-0.4-2.4-5-2.9-5,0.4c0,4.7,1.1,9.3,1.4,14
	c0.3,4.3,0.1,8.6,0.8,12.9c0.4,2.7,5,2.7,5.5,0c0.5-3,0.7-6.5,0.6-10.2c2.2,0.3,4.5,0.1,6.8,0.6c0.4,0.1,0.8,0.1,1.2,0
	c0.2,3.2,0.6,6.3,1.8,9.3c0.8,1.9,4,1.4,4.4-0.6C334.6,314.6,333.3,309.2,332.7,304.2"/>
<path class="st39" d="M343.3,313.4c0-3.2-0.2-6.3-0.6-9.4c-0.3-2.7-4.1-2.8-4.3,0c-0.3,3.1-0.5,6.2-0.6,9.4
	c-0.1,2.7-0.6,5.4,0.7,7.9c0.8,1.4,2.7,1.2,3.5,0C343.6,319.1,343.2,316.1,343.3,313.4"/>
<path class="st39" d="M343.7,295.1C343.7,295.1,343.6,295.1,343.7,295.1c-0.9-1.2-3.2-1.2-4.1-0.1c0,0,0,0.1-0.1,0.1
	c-0.7,0.9-1.1,2-0.6,3.2c0.4,1,1.5,1.8,2.7,1.8c1,0,2-0.6,2.5-1.5C344.8,297.5,344.5,296.2,343.7,295.1"/>
<path class="st39" d="M356.3,285.7c-1.3,7.7-3,17-1.2,24.7c0.4,2,3.3,1.8,3.9,0c2.2-7.4,1.9-16.3,2.3-24
	C361.4,283.6,356.8,282.9,356.3,285.7"/>
<path class="st39" d="M357.7,317.4C357.7,317.3,357.7,317.3,357.7,317.4c-0.9-1-2.4-1.2-3.5-0.7c-1.1,0.5-2,1.6-1.9,2.8
	c0.1,1.1,0.6,2.1,1.5,2.7c1.1,0.6,2.9,0.6,3.8-0.5c0,0,0,0,0.1-0.1C358.9,320.3,358.9,318.7,357.7,317.4"/>
</svg>
